<?xml version="1.0" encoding="UTF-8"?>
<svg width="22px" height="22px" viewBox="0 0 22 22" version="1.1" xmlns="http://www.w3.org/2000/svg" xmlns:xlink="http://www.w3.org/1999/xlink">
    <title>qatar-circle</title>
    <g id="Page-1" stroke="none" stroke-width="1" fill="none" fill-rule="evenodd">
        <g id="Artboard" transform="translate(-45.000000, -57.000000)" fill-rule="nonzero">
            <g id="qatar-circle" transform="translate(45.000000, 57.000000)">
                <path d="M9.54525,1.0912 L5.181,2.54595 L9.54525,4.0007 L5.181,5.45545 L9.54525,6.9102 L5.181,8.36495 L9.54525,9.8197 L5.18045,11.275 L9.5447,12.72975 L5.18045,14.1845 L9.5447,15.63925 L5.18045,17.094 L9.5447,18.54875 L5.18045,20.0035 L9.5447,21.45825 L8.53215,21.71125 C9.3269,21.8944 10.15025,22 11,22 C17.0753,22 22,17.0753 22,11 C22,4.9247 17.0753,0 11,0 C9.77405,0 8.5987,0.209 7.4976,0.57915 L9.54525,1.0912 Z" id="Path" fill="#880E4F"></path>
                <path d="M5.18045,20.00405 L9.5447,18.5493 L5.18045,17.09455 L9.5447,15.6398 L5.18045,14.18505 L9.5447,12.7303 L5.18045,11.275 L9.5447,9.82025 L5.18045,8.3655 L9.5447,6.91075 L5.18045,5.456 L9.5447,4.00125 L5.18045,2.5465 L9.5447,1.09175 L7.49705,0.5797 C3.1416,2.04325 0,6.15065 0,11 C0,16.22555 3.64705,20.59035 8.53215,21.7118 L9.5447,21.4588 L5.18045,20.00405 Z" id="Path" fill="#ECEFF1"></path>
            </g>
        </g>
    </g>
</svg>