<?xml version="1.0" encoding="UTF-8"?>
<svg width="40px" height="40px" viewBox="0 0 40 40" version="1.1" xmlns="http://www.w3.org/2000/svg" xmlns:xlink="http://www.w3.org/1999/xlink">
    <title>uae_rounded_circle</title>
    <g id="Page-1" stroke="none" stroke-width="1" fill="none" fill-rule="evenodd">
        <g id="Artboard" transform="translate(-239.000000, -56.000000)" fill-rule="nonzero">
            <g id="uae_rounded_circle" transform="translate(239.000000, 56.000000)">
                <path d="M12,27 L38.716,27 C39.532,24.818 40,22.467 40,20 C40,17.533 39.532,15.182 38.716,13 L12,13 L12,27 Z" id="Path" fill="#ECEFF1"></path>
                <path d="M20,0 C17.154,0 14.451,0.604 12,1.675 L12,13 L38.716,13 C35.875,5.412 28.579,0 20,0 Z" id="Path" fill="#388E3C"></path>
                <path d="M12,38.325 C14.451,39.396 17.154,40 20,40 C28.579,40 35.875,34.588 38.716,27 L12,27 L12,38.325 Z" id="Path" fill="#424242"></path>
                <path d="M12,13 L12,1.675 C4.939,4.763 0,11.801 0,20 C0,28.199 4.939,35.237 12,38.325 L12,27 L12,13 Z" id="Path" fill="#F44336"></path>
            </g>
        </g>
    </g>
</svg>