<svg xmlns="http://www.w3.org/2000/svg" viewBox="8 8 32 16" fill="#ec1d24"><path d="M26.392 17.86v13.93s-10.916 2.32-16.569-8.482h5.205s2.281 3.575 6.843 3.924v-9.371h4.521zM40 17.687c-1.97 12.057-12.184 13.931-12.184 13.931v-4.636c6.9-2.34 7.6-9.295 7.6-9.295zM11.09 6.788C15.38-.515 24.97.008 24.97.008c12.69.888 14.58 12.577 14.58 12.577H13.136c-2.046 4.039.898 9.468.898 9.468H9.122c-2.962-8.02.877-14.102.877-14.102h22.202C24.776.625 17.076 6.788 17.076 6.788zm13.022 6.163a2.292 2.292 0 0 1 2.28 2.282c0 1.255-1.032 2.26-2.28 2.26-1.267 0-2.3-1.005-2.3-2.26a2.296 2.296 0 0 1 2.3-2.282z"/></svg>
