<svg viewBox="0 0 38 27" xmlns="http://www.w3.org/2000/svg"><path d="M35 0a3 3 0 0 1 3 3v21a3 3 0 0 1-3 3H3a3 3 0 0 1-3-3V3a3 3 0 0 1 3-3h32ZM24.719 18.778h-.004l-.001.002-.087.03c-.29.125-.26.454-.037.604-3.806 0-9.545-.058-11.24-.064h-.232c-.738 0-3.071-.085-3.116-.085.5.7 1.225.842 2.174.856h.762c2.687-.004 9.509-.021 11.608-.021a.599.599 0 0 0-.058.39l-.251-.006c-.091.04-.1.201-.024.29.13.005.255.017.378.025a.35.35 0 0 0 .1.122l.01.006c.006.002.012.005.023.006l.07.006c.107-.006.162-.092.206-.157.252.02 1.67.04 1.802-.004l.044.06c.075.098.159.176.298.16.292-.06.523-.09.53-.657 0 0-.03-.966-.694-.906-.157.023-.598.065-.598.065-.51-.058-.884-.064-1.458-.084.053-.064.146-.324.032-.418-.03-.024-.074-.037-.142-.032l-.003-.002-.003-.001-.003-.001-.01-.01-.002-.001c-.031-.043-.047-.142-.07-.17l-.004-.003Zm5.446-12.573c-.027.003-.06.044-.11.144-.12.187-.16.523-.112.82.289 1.864.503 3.67.548 5.323-.025.156-.032.24-.11.437-.17.209-.357.47-.534.596-.177.126-.554.246-.677.34-.391.216-.393.463-.077.472.544-.06 1.189-.103 1.633-.743.119-.179.259-.665.265-.963.042-1.744-.023-3.449-.297-4.709-.018-.122-.074-.405-.053-.442.035-.086.213.009.277-.09.093-.091-.461-.768-.655-1.058-.04-.07-.063-.131-.098-.127Zm-6.718.072c-.027.003-.06.042-.11.143-.12.187-.2.514-.191.82.26 1.717.339 3.219.509 4.936.014.166-.012.407-.127.504-.428.426-1.044.952-1.715 1.194-.072.078.18.408.505.408.544-.06 1.023-.352 1.467-1.121.119-.179.327-.563.333-.86.042-1.745-.092-3.1-.366-4.36-.018-.123-.006-.269.016-.306.035-.04.155.001.218-.098.093-.091-.25-.844-.442-1.132-.038-.072-.062-.13-.097-.128Zm5.229-.024c-.073-.127-.206-.083-.37.124-.152.136-.096.445-.038.74.15.752.285 1.517.392 2.281-.197-.28-.438-.618-.675-.945l-.03-.149c0-.013-.033-.614-.061-.758-.005-.058-.02-.074.044-.068.068.055.077.058.119.076.068.011.128-.099.087-.201l-.634-1.119c-.023-.022-.052-.047-.085-.051-.033-.005-.07.01-.11.068a.434.434 0 0 0-.157.331c.019.265.068.536.087.8l.02.107a1.048 1.048 0 0 0-.071-.08c-.541-.542.248-.088-.103-.507-.297-.312-.384-.411-.638-.598-.128-.078-.205-.23-.246.027a4.742 4.742 0 0 0-.018.675c-.001.105.113.304.212.42.36.423.729.874 1.099 1.343.078.958.099 1.836.178 2.795-.011.41-.143.955-.27 1.007 0 0-.19.105-.318-.012-.093-.035-.465-.591-.465-.591-.19-.167-.317-.119-.453 0-.373.344-.542.99-.796 1.433-.065.1-.25.183-.455-.008l-.072-.104c-.33-.527-.231-1.174-.205-1.308l.001-.007-.005.022-.084.104c-.352.503-.167 1.233-.07 1.4.153.291.276.478.574.623.27.19.482.072.598-.062.273-.27.276-.96.404-1.096.09-.25.315-.208.424-.097.106.147.232.241.388.32.254.215.558.254.857.059.204-.11.337-.252.457-.533.128-.328.065-2.046.036-3.001.192.258.382.522.57.789.083.838.12 1.665.093 2.457-.02.158.576-.47.572-.768-.003-.26 0-.496 0-.716.289.44.568.887.832 1.34.164-.082.108-.967.004-1.09-.277-.442-.631-.921-.905-1.292a22.615 22.615 0 0 0-.162-1.189c-.052-.264-.105-.66-.184-.972-.022-.122-.087-.513-.067-.55.032-.087.154.003.214-.098.09-.094-.312-1.087-.515-1.37Zm-16.93.08h-.022c-.04.006-.081.027-.131.037-.165.05-.32.187-.271.451.195 1.133.322 1.996.517 3.128.03.133-.086.307-.236.29-.255-.165-.318-.498-.754-.484-.315.004-.674.33-.72.646-.052.25-.07.522 0 .741.222.255.488.228.72.17.19-.075.349-.255.418-.212v.002l.006.018c.027.12-.063.667-.907 1.095-.551.236-.99.293-1.226-.137-.146-.268.01-1.291-.35-1.055-1.065 2.622 2.496 2.988 2.893.108.026-.081.104-.163.16-.143.024.01.047.042.055.1-.083 2.608-2.755 2.787-3.21 1.967-.111-.193-.145-.624-.157-.882-.021-.156-.062-.246-.11-.282-.107-.077-.253.125-.284.476-.045.283-.032.36-.032.633.143 2.06 3.58 1.174 4.14-.527.277-.88-.006-1.543.09-1.626l.009-.004.005-.001c.348.35.827.044.932-.078.045-.061.158-.1.236-.021.266.182.733.096.83-.226a6.84 6.84 0 0 0 .115-.976c-.173.051-.313.09-.37.146a.098.098 0 0 0-.026.046l-.044.28a.077.077 0 0 1-.008.021.09.09 0 0 1-.032.029c-.061.031-.168.013-.174-.072-.083-.358-.422-.404-.628.15-.14.107-.392.128-.418-.032.034-.373-.123-.423-.438-.247-.101-.738-.202-1.442-.303-2.18.13-.004.252.087.372-.056-.13-.386-.405-1.17-.564-1.246l-.011-.012-.011-.01-.01-.007-.005-.003-.005-.003-.02-.007-.021-.004Zm4.392 2.756-.01.005-.006.004-.021.018c-.023.022-.053.055-.104.09-.116.125-.136.213-.13.465.008.027.22.592.4.99.123.413.235.886.153 1.332-.285.591-.858 1.121-1.41 1.409-.282.086-.525.056-.59-.002l-.002-.002a.345.345 0 0 1-.156-.322l.002-.002.108-.07c.44-.282.923-.556 1.308-1.329.123-.32.16-.513.038-1.007-.048-.184-.107-.336-.236-.468l.04-.006c.094.006.25.101.277.023-.05-.236-.216-.554-.406-.716-.166-.145-.347-.161-.5-.03-.17.092-.207.419-.124.705.092.215.339.253.515.688l.004.027c.013.081.043.314-.032.417-.072.214-.997.911-1.07.957l-.005.006h-.004l-.002-.002v-.002l-.001-.002c-.004-.02 0-.064-.001-.135-.006-.13.05-.425.046-.478l-.002-.002v-.002h-.002l-.095.076c-.233.236-.318.71-.368.862-.774.51-1.653.891-2.16 1.409-.264.393 1.817-.452 2.059-.554l.006.006c.046.049.05.217.188.368.216.28.676.452 1.123.345.75-.259 1.182-.747 1.622-1.289.063-.087.16-.156.253-.089.302.647 1.174 1.107 2.3 1.154.262-.303.137-.451.03-.515-.032-.021-.56-.217-.642-.413-.052-.182.074-.343.325-.465.724-.083 1.435-.176 2.124-.388.007-.22.143-.55.234-.694.063-.1.104-.11.125-.13v-.012l-.002-.01-.117-.066-2.31-.01-.037-.015-.025-.015-.01-.01-.002-.004v-.002l-.002-.002v-.015l.002-.002.002-.004.016-.014a.296.296 0 0 1 .057-.026c.55-.071 1.53-.224 1.596-1.124-.01-.469-.21-.776-.812-.86-.442.032-.758.44-.707.89-.021.122.043.359-.087.387-.85.073-1.775.582-1.808.945l-.002.002h-.003l-.004.002-.004.001-.003.001h-.016c-.06-.016-.13-.103-.12-.226a4.19 4.19 0 0 0-.581-1.886c-.12-.114-.172-.16-.206-.167h-.016Zm12.445 3.69h-.048c-.048 0-.098.007-.17.013-.078.016-.106.049-.12.14.006.137.094.13.184.185.052.063.086.121-.004.226-.086.074-.146.115-.232.19-.04.067-.066.167.058.2.228.06.756-.266.756-.274.086-.061.057-.178.05-.178-.05-.054-.162-.022-.238-.03-.036 0-.154-.016-.098-.117a.672.672 0 0 0 .096-.176c.036-.074.004-.125-.124-.166a.762.762 0 0 0-.158-.014Zm-21.06-1.044c-.016.001-.048.046-.09.098-.376.572-.41 1.425-.202 1.68.11.121.292.174.426.136.236-.097.34-.554.284-.721-.08-.118-.141-.137-.22-.037-.166.322-.235.102-.25-.078a3.977 3.977 0 0 1 .048-.906c.02-.128.02-.172.004-.172Zm12.81.75a.186.186 0 0 0-.088.018c-.006 0-.27.17-.354.289-.052.037-.046.07-.03.136.04.088.11.06.192.019.107-.015.159.052.15.176-.05.153.022.21.022.22 0 .01.103.093.224.026.255-.092.414-.183.772-.258.094-.002.088-.242-.06-.25-.194.01-.372.019-.566.164-.12.027-.14-.043-.166-.105-.03-.154.068-.263.048-.378.006.005-.06-.051-.144-.056Zm-.537-6.378c-.068.006-.121.044-.141.139-.027.224-.013.346.026.532.03.125.22.333.313.454.446.571.875 1.147 1.289 1.742.065.442.113.874.143 1.304.067.944.088 2.118.026 3.111.185.007.482-.285.586-.713.068-.593-.024-1.801-.03-2.151-.004-.146-.014-.319-.024-.5.482.751.949 1.548 1.408 2.423.167-.076.13-.976.032-1.102-.367-.754-.875-1.5-1.036-1.786a13.565 13.565 0 0 0-.493-.726c-.043-.475-.091-.878-.121-.999-.076-.502.216.056.176-.235-.095-.502-.385-.843-.727-1.303-.11-.149-.108-.18-.28.037a.917.917 0 0 0-.07.576 3.057 3.057 0 0 0-.18-.227c-.296-.242-.314-.256-.56-.453-.077-.052-.225-.132-.337-.123Zm4.659.126c-.022.004-.056.037-.117.114-.152.475-.206.863-.147 1.158.39 1.947.79 3.72.727 5.574.185 0 .399-.405.49-.806.05-.554-.032-.89-.047-1.216-.015-.325-.386-2.964-.461-3.21-.091-.465.36-.06.31-.331-.155-.342-.544-.838-.666-1.134-.045-.082-.051-.154-.09-.149Zm2.614 4.39h-.04c-.114.014-.221.116-.172.28-.031.097.154.433.202.612.043.127-.056.487.034.525.083.042.3-.213.293-.534.024-.166-.062-.773-.28-.876l-.037-.008ZM8.999 6.33a.238.238 0 0 0-.18.144c-.013.276-.014.551.018.804.13.446.173.837.236 1.293.018.611-.37.264-.352-.038.089-.393.065-1.013-.014-1.17-.063-.156-.136-.195-.29-.17-.121-.006-.435.32-.522.86 0 0-.073.278-.105.526-.043.28-.237.477-.372-.038-.117-.375-.188-1.299-.384-1.083-.056.721-.122 1.99.519 2.12.776.072.347-1.253.628-1.493.053-.119.152-.121.16.028v1.125l.007.112c.041.277.26.37.433.437.204-.015.338-.01.418.18l.097 1.947s.47.13.493-1.094c.023-.718-.15-1.32-.048-1.46.004-.138.188-.144.315-.077.203.136.293.305.608.237.48-.126.769-.35.776-.7-.028-.335-.07-.67-.22-1.003.02-.061-.092-.22-.071-.28.086.129.217.118.246 0-.082-.258-.21-.503-.414-.61-.17-.143-.418-.113-.51.185-.041.343.13.75.393 1.082.056.13.133.347.099.54-.14.076-.277.045-.394-.073 0 0-.382-.272-.382-.334.1-.62.022-.69-.034-.862-.04-.237-.157-.313-.253-.474-.096-.097-.225-.097-.287 0-.17.279-.09.88.032 1.147.088.247.223.402.16.402-.052.14-.162.107-.24-.054-.112-.333-.135-.83-.135-1.054-.034-.277-.071-.87-.263-1.02-.05-.065-.11-.089-.168-.082Zm4.418 4.458c-.1.006-.188.057-.148.19-.006.097.28.216.298.44.04.093-.061.389.024.416.078.03.187-.205.228-.424.023-.12-.098-.54-.304-.615a.415.415 0 0 0-.098-.007Zm-4.696-.682c-.64.011-1.574.8-1.598 1.236.674-.309 1.336-.606 2.02-.925-.11-.158-.006-.3-.422-.311Zm18.537-.336-.011.002-.06.04c-.247.169-1.176.8-1.203.826-.122.104-.061.469 0 .427.088.032 1.329-.77 1.305-.864.054.002.08-.414-.02-.43l-.01-.001Zm-8.874-.35h-.036a.143.143 0 0 0-.111.108c-.011.041.02.11-.018.13-.022.02-.11.008-.105-.105 0-.036-.028-.075-.044-.098-.017-.01-.026-.014-.057-.014-.037.001-.038.01-.06.04-.008.031-.02.06-.02.095-.004.04-.018.054-.05.06-.035 0-.026.004-.055-.013-.017-.017-.038-.024-.038-.054a.3.3 0 0 0-.016-.1c-.015-.018-.04-.026-.067-.032-.145 0-.154.157-.145.218-.011.011-.018.295.18.373.266.122.9.05.746-.34 0-.037-.01-.159-.014-.192-.028-.06-.078-.083-.126-.076Zm8.203-1.162a.295.295 0 0 0-.305.244c0 .1.048.156.038.247-.014.053-.07.086-.204.025.02-.018-.087-.164-.087-.164-.105-.06-.244.003-.335.06a.469.469 0 0 0-.03.389c.15.265.665.717.91.722.006-.24.03-.557.043-.755.006-.074.024-.156.099-.176.075-.019.205.072.206-.005-.014-.152-.045-.377-.135-.482a.255.255 0 0 0-.2-.105Zm-8.668-2.246c-.042.005-.094.057-.166.181-.051.13-.273.327-.113.734.13.257.185.676.125 1.141-.091.133-.111.178-.23.311-.167.171-.348.128-.487.064-.13-.083-.232-.126-.291-.392.01-.423.036-1.115-.044-1.262-.12-.228-.316-.146-.4-.078-.404.353-.603.949-.725 1.422-.112.345-.231.246-.315.106-.204-.182-.218-1.61-.465-1.376-.395 1.077.226 2.256.657 2.142.31.123.507-.441.634-1.06.087-.172.153-.192.198-.103-.011.821.062 1.005.283 1.253.493.364.9.046.933.016l.384-.367c.085-.086.198-.09.319-.015.117.102.102.277.354.4.21.08.663.02.768-.154.14-.23.175-.31.24-.398.1-.128.273-.072.273-.03-.016.071-.117.14-.048.269.12.086.147.03.218.011.25-.113.438-.633.438-.633.01-.193-.104-.178-.178-.138-.096.056-.102.075-.198.13-.122.018-.36.095-.477-.079-.12-.208-.121-.499-.212-.709 0-.015-.16-.33-.012-.35.075.012.235.052.26-.076.079-.126-.168-.48-.336-.658-.146-.153-.348-.172-.544-.016-.137.12-.117.255-.143.382a.578.578 0 0 0 .127.521c.137.257.385.587.303 1.054 0 0-.144.222-.398.193-.106-.022-.278-.066-.37-.712-.07-.488.017-1.174-.2-1.495-.05-.121-.092-.239-.162-.23Zm-3.956 2.19a.227.227 0 0 0-.125.036c-.235.12-.326.481-.18.692.137.185.353.117.382.117.23.028.368-.413.368-.413s.007-.123-.267.11c-.115.021-.131-.019-.16-.081a.526.526 0 0 1 .036-.345c.026-.067 0-.111-.054-.117Zm8.967-.085h-.036a.146.146 0 0 0-.111.11c-.011.041.02.107-.018.127-.022.021-.11.009-.105-.104 0-.036-.028-.076-.044-.099-.017-.01-.028-.013-.06-.013-.036.001-.035.01-.056.04-.01.03-.02.06-.02.095-.005.04-.02.053-.051.06-.035 0-.028.004-.057-.013-.017-.017-.036-.024-.036-.054s-.008-.08-.018-.1c-.015-.018-.038-.026-.065-.033-.145.001-.154.158-.145.218-.011.012-.018.296.18.374.266.122.767.068.746-.341 0-.037-.01-.158-.014-.191-.028-.062-.078-.085-.126-.076Zm6.498-1.12c-.124-.003-.26.086-.206.262-.031.097.265.424.313.602.043.127-.066.537.024.574.083.043.199-.283.242-.584.024-.165-.104-.744-.321-.847a.483.483 0 0 0-.052-.007ZM14.12 6.274a.61.61 0 0 0-.242.064c-.176.161-.218.42-.08.58.136.061.27.19.18.262-.381.39-1.375 1.04-1.427 1.164v.008l.004.003h.002l.002.002h.002l.002.002.036.01c.146.022.645.018.708-.01h.002v-.002l.049-.026c.288-.184 1.179-1.157 1.179-1.157l-.154-.117-.027-.028c-.025-.038-.014-.074.027-.111.25-.14.172-.447.04-.586a.688.688 0 0 0-.303-.058Zm8.229.065c-.136-.003-.287.079-.228.241-.034.09.293.39.346.556.095.253-.072.495.026.53.09.04.217-.261.265-.54.055-.224-.113-.686-.352-.78a.286.286 0 0 0-.057-.007ZM7.736 6.202c-.117-.003-.246.066-.196.2-.03.074.229.322.275.458.04.096-.04.409.044.438.078.032.185-.217.226-.446.023-.126.006-.556-.301-.644a.41.41 0 0 0-.048-.006Zm9.486-.139c-.066.006-.14.079-.198.22-.051.107-.113.67-.103.67-.041.167.183.237.285.022.153-.394.153-.562.164-.73-.025-.126-.083-.188-.148-.182ZM15.716 6a.255.255 0 0 0-.115.042c-.118.076-.352.309-.36.577-.007.15-.037.15.067.246.075.104.15.093.3.018a.305.305 0 0 0 .146-.203c.036-.172-.19.081-.218-.11-.05-.178.094-.25.23-.423.004-.08.006-.146-.05-.147Zm-5.128.27h-.035a.143.143 0 0 0-.111.108c-.011.04.019.109-.02.129-.022.02-.107.007-.103-.106 0-.037-.028-.074-.044-.097-.017-.01-.028-.013-.06-.013-.036 0-.035.01-.056.04-.01.03-.021.06-.021.095-.005.04-.022.053-.053.06-.035 0-.026.004-.055-.014-.017-.017-.036-.024-.036-.053 0-.03-.008-.08-.018-.1a.117.117 0 0 0-.065-.035c-.145.001-.156.16-.147.22-.011.011-.016.294.182.372.266.121.765.07.744-.34a2.89 2.89 0 0 0-.012-.19c-.028-.061-.078-.084-.125-.076Z" fill="#33691E" fill-rule="evenodd"/></svg>
